<?xml version="1.0" standalone="no"?>
<!DOCTYPE svg PUBLIC "-//W3C//DTD SVG 20010904//EN"
 "http://www.w3.org/TR/2001/REC-SVG-20010904/DTD/svg10.dtd">
<svg version="1.0" xmlns="http://www.w3.org/2000/svg"
 width="260.000000pt" height="260.000000pt" viewBox="0 0 260.000000 260.000000"
 preserveAspectRatio="xMidYMid meet">
<metadata>
Created by potrace 1.14, written by Peter Selinger 2001-2017
</metadata>
<g transform="translate(0.000000,260.000000) scale(0.100000,-0.100000)"
fill="#000000" stroke="none">
<path d="M1175 2484 c-293 -32 -557 -162 -760 -375 -159 -167 -259 -358 -311
-596 -23 -107 -23 -359 0 -466 52 -238 152 -429 311 -596 176 -185 384 -301
642 -357 107 -23 359 -23 466 0 434 95 775 394 910 798 48 143 60 222 60 388
0 217 -36 368 -131 554 -167 325 -474 555 -841 631 -76 16 -275 26 -346 19z
m348 -697 c120 -55 195 -144 225 -266 l17 -69 51 -5 c102 -11 207 -86 254
-182 21 -42 25 -65 25 -145 0 -81 -4 -102 -24 -145 -32 -63 -93 -124 -156
-156 l-50 -24 -505 -3 c-480 -3 -507 -2 -570 17 -122 37 -224 131 -272 251
-19 45 -23 75 -23 166 0 107 1 112 37 185 46 93 112 158 206 202 61 29 76 32
179 34 l112 2 47 51 c45 49 123 94 187 111 18 4 70 7 117 6 67 -3 97 -9 143
-30z"/>
<path d="M1242 1670 c-44 -22 -73 -46 -97 -78 -60 -82 -63 -85 -104 -77 -102
19 -126 21 -174 13 -99 -18 -183 -82 -229 -176 -19 -38 -23 -63 -23 -132 0
-72 4 -92 27 -135 31 -60 87 -114 148 -146 l45 -24 480 -3 c330 -2 492 0 518
8 153 45 196 250 74 357 -48 42 -97 57 -167 50 -82 -9 -92 2 -101 100 -8 90
-25 131 -78 186 -53 56 -104 79 -186 84 -63 4 -76 2 -133 -27z m278 -270 c38
-38 27 -57 -128 -212 -106 -106 -154 -148 -171 -148 -16 0 -52 28 -112 87 -73
71 -89 92 -89 117 0 16 7 38 17 48 29 32 61 22 126 -41 l62 -60 116 115 c122
120 142 131 179 94z"/>
</g>
</svg>
